<?xml version="1.0" encoding="iso-8859-1"?>
<!-- Uploaded to: SVG Repo, www.svgrepo.com, Generator: SVG Repo Mixer Tools -->
<svg version="1.1" id="Layer_1" xmlns="http://www.w3.org/2000/svg" xmlns:xlink="http://www.w3.org/1999/xlink" 
	 viewBox="0 0 512 512" xml:space="preserve">
<path style="fill:#EEC97B;" d="M392,291.392V200h-16c-13.232,0-24,10.768-24,24v64h24C381.696,288,387.088,289.232,392,291.392z"/>
<path style="fill:#9FC7D1;" d="M96,472c0,13.232,10.768,24,24,24h96v-64H96V472z"/>
<path style="fill:#E87B5A;" d="M303.448,247.296c0.88-2.928,0.712-5.032-0.496-6.24c-0.712-0.704-1.72-1.056-3.008-1.056
	c-0.928,0-2.016,0.176-3.24,0.552c-3.632,1.088-9.784,4.208-18.496,12.928c-8.096,8.096-13.992,20.4-17.704,30.016
	c9.616-3.712,21.92-9.608,30.016-17.704C299.232,257.08,302.36,250.928,303.448,247.296z"/>
<path style="fill:#9FC7D1;" d="M280,496h64h32c13.232,0,24-10.768,24-24v-40H280V496z"/>
<g>
	<path style="fill:#E87B5A;" d="M120,288h88.344c-5.112-3.136-10.024-6.744-14.168-10.888c-8.888-8.888-14.592-17.376-16.944-25.216
		c-2.624-8.752-1.024-16.616,4.512-22.144c5.528-5.536,13.424-7.136,22.144-4.52c7.848,2.352,16.328,8.048,25.216,16.944
		c8.336,8.336,14.552,19.688,18.888,29.672c4.336-9.984,10.552-21.336,18.888-29.672c8.888-8.896,17.376-14.592,25.216-16.944
		c8.72-2.616,16.608-1.024,22.152,4.52c5.536,5.528,7.144,13.4,4.512,22.144c-2.352,7.848-8.056,16.328-16.944,25.216
		c-4.144,4.152-9.064,7.76-14.168,10.888H336v-64v-72c0-13.232-10.768-24-24-24H195.312l26.344,26.344
		C223.152,155.84,224,157.872,224,160v36.688l13.656,13.656l-11.312,11.312l-16-16C208.84,204.16,208,202.128,208,200v-36.688
		l-32-32l-32,32V200c0,2.128-0.848,4.16-2.344,5.656l-16,16l-11.312-11.312L128,196.688V160c0-2.128,0.84-4.16,2.344-5.656
		L156.688,128H40c-13.232,0-24,10.768-24,24v320c0,13.232,10.768,24,24,24h48.208C83.128,489.296,80,481.04,80,472V328
		C80,305.944,97.944,288,120,288z M48,224H32v-16h16V224z M48,192H32v-16h16V192z M48,160H32v-16h16V160z"/>
	<path style="fill:#E87B5A;" d="M408,304h-0.208c5.08,6.704,8.208,14.96,8.208,24v144c0,9.04-3.128,17.296-8.208,24H440V200h-32V304
		z"/>
</g>
<path style="fill:#9FC7D1;" d="M376,304h-96v64h120v-40C400,314.768,389.232,304,376,304z"/>
<g>
	<rect x="280" y="384" style="fill:#E87B5A;" width="120" height="32"/>
	<rect x="96" y="384" style="fill:#E87B5A;" width="120" height="32"/>
	<rect x="232" y="304" style="fill:#E87B5A;" width="32" height="192"/>
	<path style="fill:#E87B5A;" d="M217.8,253.48c-8.72-8.72-14.864-11.84-18.496-12.928c-1.232-0.376-2.32-0.552-3.248-0.552
		c-1.288,0-2.296,0.352-3,1.056c-1.208,1.208-1.384,3.312-0.496,6.24c1.088,3.632,4.208,9.784,12.928,18.504
		c8.096,8.096,20.4,13.992,30.016,17.704C231.792,273.88,225.888,261.576,217.8,253.48z"/>
</g>
<path style="fill:#9FC7D1;" d="M96,328v40h120v-64h-96C106.768,304,96,314.768,96,328z"/>
<path style="fill:#EEC97B;" d="M472,200h-16v296h16c13.232,0,24-10.768,24-24V224C496,210.768,485.232,200,472,200z"/>
<g>
	<path style="fill:#3C4A53;" d="M472,184h-11.736c1.96-1.472,3.824-3.056,5.52-4.76c6.904-6.904,11.344-13.544,13.2-19.752
		c2.16-7.192,0.744-13.976-3.88-18.6c-4.632-4.632-11.432-6.048-18.6-3.88c-6.2,1.856-12.84,6.296-19.752,13.2
		c-5.352,5.352-9.568,12.296-12.76,18.888c-3.192-6.592-7.408-13.536-12.76-18.888c-6.904-6.904-13.544-11.344-19.752-13.2
		c-7.176-2.168-13.968-0.752-18.6,3.88c-4.624,4.624-6.048,11.408-3.88,18.6c1.856,6.2,6.296,12.84,13.2,19.752
		c1.696,1.696,3.56,3.28,5.52,4.76H376c-9.04,0-17.296,3.128-24,8.208V152c0-22.056-17.944-40-40-40h-90.52
		c15.424-7.16,32.008-16.832,44.48-29.304c14.848-14.848,24.32-28.848,28.152-41.608c3.928-13.104,1.656-24.752-6.4-32.8
		c-8.048-8.064-19.704-10.336-32.8-6.4c-12.76,3.832-26.76,13.296-41.608,28.152C195.336,48,183.144,74.472,176,93.728
		C168.856,74.472,156.664,48,138.696,30.04C123.848,15.184,109.848,5.72,97.088,1.888c-13.112-3.936-24.76-1.664-32.8,6.4
		c-8.056,8.048-10.328,19.696-6.4,32.8c3.824,12.76,13.296,26.76,28.152,41.608C98.512,95.168,115.088,104.84,130.52,112H40
		c-22.056,0-40,17.944-40,40v320c0,22.056,17.944,40,40,40h80h104h48h72h32h96c22.056,0,40-17.944,40-40V224
		C512,201.944,494.056,184,472,184z M384.328,154.896c-0.384-1.296-0.44-2.384-0.128-2.696c0.144-0.128,0.424-0.2,0.808-0.2
		c0.488,0,1.152,0.112,1.888,0.328c2.048,0.616,6.464,2.624,13.032,9.192c4.68,4.68,8.352,11.344,11.024,17.416
		c-6.256-2.768-12.904-6.488-17.432-11.008C386.952,161.36,384.944,156.944,384.328,154.896z M352,224c0-13.232,10.768-24,24-24h16
		v91.392c-4.912-2.16-10.304-3.392-16-3.392h-24V224z M224.616,41.352c16.144-16.136,27.88-22.032,34.888-24.136
		c2.728-0.816,5.208-1.224,7.464-1.224c3.864,0,7.024,1.2,9.432,3.608c3.808,3.808,4.608,9.48,2.384,16.888
		c-2.104,7.008-7.992,18.752-24.136,34.888c-18.632,18.632-49.064,30.792-66.72,36.68C193.816,90.424,205.944,60.024,224.616,41.352
		z M97.352,71.384C81.216,55.24,75.32,43.504,73.216,36.496C70.992,29.088,71.8,23.408,75.6,19.6
		c2.408-2.408,5.552-3.608,9.424-3.608c2.248,0,4.744,0.408,7.472,1.224c7.008,2.104,18.752,7.992,34.888,24.136
		c18.632,18.632,30.792,49.064,36.68,66.72C146.424,102.184,116.024,90.056,97.352,71.384z M88.208,496H40
		c-13.232,0-24-10.768-24-24V152c0-13.232,10.768-24,24-24h116.688l-26.344,26.344C128.84,155.84,128,157.872,128,160v36.688
		l-13.656,13.656l11.312,11.312l16-16C143.152,204.16,144,202.128,144,200v-36.688l32-32l32,32V200c0,2.128,0.84,4.16,2.344,5.656
		l16,16l11.312-11.312L224,196.688V160c0-2.128-0.848-4.16-2.344-5.656L195.312,128H312c13.232,0,24,10.768,24,24v72v64h-48.344
		c5.112-3.136,10.024-6.744,14.168-10.888c8.888-8.888,14.592-17.376,16.944-25.216c2.624-8.752,1.024-16.616-4.512-22.144
		c-5.536-5.536-13.432-7.136-22.152-4.52c-7.84,2.352-16.328,8.048-25.216,16.944c-8.336,8.336-14.552,19.688-18.888,29.672
		c-4.336-9.984-10.552-21.336-18.888-29.672c-8.888-8.896-17.376-14.592-25.216-16.944c-8.728-2.616-16.616-1.024-22.144,4.52
		c-5.536,5.528-7.144,13.4-4.512,22.144c2.352,7.848,8.056,16.328,16.944,25.216c4.152,4.152,9.064,7.76,14.168,10.888H120
		c-22.056,0-40,17.944-40,40v144C80,481.04,83.128,489.296,88.208,496z M216,496h-96c-13.232,0-24-10.768-24-24v-40h120V496z
		 M216,416H96v-32h120V416z M216,368H96v-40c0-13.232,10.768-24,24-24h96V368z M205.48,265.8c-8.72-8.72-11.84-14.864-12.928-18.504
		c-0.88-2.928-0.712-5.032,0.496-6.24c0.712-0.704,1.72-1.056,3.008-1.056c0.928,0,2.016,0.176,3.24,0.552
		c3.632,1.088,9.784,4.208,18.496,12.928c8.096,8.096,13.992,20.4,17.704,30.016C225.88,279.792,213.576,273.888,205.48,265.8z
		 M264,496h-32V304h32V496z M260.496,283.504c3.712-9.616,9.608-21.92,17.704-30.016c8.72-8.72,14.864-11.84,18.496-12.928
		c1.232-0.384,2.32-0.56,3.248-0.56c1.288,0,2.296,0.352,3,1.056c1.208,1.208,1.384,3.312,0.496,6.24
		c-1.088,3.632-4.208,9.784-12.928,18.504C282.424,273.888,270.12,279.792,260.496,283.504z M400,472c0,13.232-10.768,24-24,24h-32
		h-64v-64h120V472z M400,416H280v-32h120V416z M400,368H280v-64h96c13.232,0,24,10.768,24,24V368z M440,496h-32.208
		c5.08-6.704,8.208-14.96,8.208-24V328c0-9.04-3.128-17.296-8.208-24H408V200h32V496z M437.064,178.952
		c2.768-6.256,6.488-12.904,11.008-17.432c6.568-6.568,10.984-8.576,13.032-9.192c0.728-0.216,1.392-0.328,1.888-0.328
		c0.384,0,0.664,0.072,0.808,0.2c0.312,0.312,0.256,1.4-0.128,2.696c-0.616,2.048-2.624,6.464-9.192,13.032
		C449.8,172.608,443.136,176.28,437.064,178.952z M496,472c0,13.232-10.768,24-24,24h-16V200h16c13.232,0,24,10.768,24,24V472z"/>
	<rect x="416" style="fill:#3C4A53;" width="16" height="32"/>
	<rect x="416" y="48" style="fill:#3C4A53;" width="16" height="16"/>
	<rect x="416" y="80" style="fill:#3C4A53;" width="16" height="32"/>
	<rect x="448" y="48" style="fill:#3C4A53;" width="32" height="16"/>
	<rect x="368" y="48" style="fill:#3C4A53;" width="32" height="16"/>
	<rect x="32" y="176" style="fill:#3C4A53;" width="16" height="16"/>
	<rect x="32" y="208" style="fill:#3C4A53;" width="16" height="16"/>
	<rect x="32" y="144" style="fill:#3C4A53;" width="16" height="16"/>
</g>
</svg>