<?xml version="1.0" encoding="utf-8"?>
<!-- Uploaded to: SVG Repo, www.svgrepo.com, Generator: SVG Repo Mixer Tools -->
<svg width="800px" height="800px" viewBox="0 0 1024 1024" class="icon"  version="1.1" xmlns="http://www.w3.org/2000/svg"><path d="M926.758539 881.146496c0.443342 1.845041 0.380885 3.694178 0.443342 5.603724 0.065529 1.71808 0.19249 3.374726-0.126961 5.030349 0 0.126962 0.065529 0.189419 0 0.31638-0.061433 0.384981-0.316381 0.638904-0.443343 1.020814-1.976099 8.339546-7.960708 15.472955-16.812197 17.956901-4.96482 1.398627-9.802678 0.762795-14.325179-0.765867-90.928184-19.228566-283.288592-24.385877-383.510583-24.385876s-292.644856 5.15731-383.510583 24.385876c-4.518406 1.528661-9.359336 2.164494-14.32518 0.765867-8.802342-2.483946-14.787976-9.617355-16.76305-17.894444-0.126962-0.380885-0.381909-0.697266-0.508871-1.082247 0-0.126962 0.065529-0.253924 0-0.316381-0.253924-1.655623-0.126962-3.312269-0.062457-5.030348 0-1.91057-0.065529-3.758683 0.381909-5.603725 0.062457-0.065529 0-0.126962 0.062457-0.19249 46.880637-166.696722 46.81818-347.470843-0.189419-537.219319-0.065529-0.253924 0-0.443342-0.065528-0.701362-0.316381-1.591118-0.189419-3.309197-0.189419-5.030348 0-1.591118-0.258019-3.182236 0.062457-4.710897 0.065529-0.189419-0.062457-0.446414 0-0.701361 0.253924-1.209209 1.020814-2.164494 1.464156-3.309198 0.638904-1.656646 1.147775-3.24674 2.10306-4.713968 0.889756-1.33617 2.037532-2.419441 3.182236-3.563121 1.082247-1.082247 2.037532-2.230022 3.312269-3.119778 1.464156-1.020814 3.119779-1.594189 4.837858-2.295551 1.098629-0.443342 1.926952-1.209209 3.136161-1.464156 0.19249-0.062457 0.446414 0 0.638904-0.062457 1.652551-0.319452 3.374726-0.19249 5.030349-0.192491 1.591118 0 3.182236-0.189419 4.710896 0.065529 0.253924 0.062457 0.446414-0.065529 0.701362 0 42.850625 9.359336 111.046507 16.23575 202.294143 20.503304 24.193386-17.44803 50.554338-31.3913 77.744636-39.988866-15.85384-2.800326-32.346585-3.439231-45.716479 1.464157-77.30027 28.083127-124.738925 31.519286-153.83877 11.142943-11.459325-8.023165-25.086214-23.684515-25.086215-52.911321 0-89.080071 58.134161-144.413906 151.798167-144.413906 47.310669 0 133.397923 25.787576 172.558465 119.581615 2.93036-0.319452 5.793143-0.892828 8.851489-0.892828 3.185307 0 6.305086 0.573376 9.424864 0.955285 36.033596-87.296463 112.760491-119.644072 170.960181-119.644072 93.601549 0 151.801238 55.333835 151.801238 144.413906 0 29.226807-13.692418 44.888157-25.09031 52.911321-29.162302 20.375318-76.599933 16.939159-153.835698-11.142943-13.881837-5.092806-30.437039-4.710896-45.90897-2.226951 27.632617 8.277089 54.567968 22.41285 79.21084 40.305246 90.096789-4.267554 154.662998-10.823492 196.816357-20.055866 0.253924-0.065529 0.508871 0.062457 0.697265 0 1.528661-0.253924 3.12285-0.065529 4.713969-0.065529 1.71808 0 3.436159-0.126962 5.030348 0.192491 0.253924 0.062457 0.443342 0 0.701362 0.062457 1.14368 0.253924 1.972003 1.020814 3.054249 1.401699 1.71808 0.701361 3.374726 1.274737 4.903387 2.356984 1.274737 0.889756 2.230022 2.037532 3.246741 3.119778 1.147775 1.144704 2.356984 2.164494 3.24674 3.563121 0.955285 1.467228 1.401699 3.058345 2.037532 4.713968 0.446414 1.144704 1.209209 2.099989 1.464156 3.309198 0.065529 0.253924 0 0.511943 0 0.701361 0.319452 1.528661 0.126962 3.119779 0.126962 4.710897-0.061433 1.721151 0.130033 3.439231-0.253924 5.030348-0.062457 0.258019 0.065529 0.446414 0 0.701362-46.991217 189.687043-47.053674 370.457069-0.189419 537.219319 0.002048 0.064505 0.002048 0.126962 0.002048 0.191467z" fill="#27323A" /><path d="M605.26469 339.786584c48.647863 45.974499 72.208489 125.567248 72.462413 207.388996 14.008799-21.142208 24.897819-42.026397 24.897819-52.021565v-1.082247c0-7.514294 3.436159-14.647703 9.421793-19.293071a24.435023 24.435023 0 0 1 21.650055-4.267554c4.837858 1.33617 11.971267 3.566193 19.740509 6.112595-21.396132-60.298655-84.241189-118.814725-148.172589-136.837154zM567.636905 251.280913c1.525589 1.591118 2.800326 3.374726 4.202025 5.092805 24.066425-8.720431 71.250132-21.520022 112.764586-6.428976 81.440863 29.670149 104.043131 20.564737 109.012047 17.063049 1.14368-0.828323 4.267554-2.992817 4.267554-12.861023 0-43.555058-17.894444-95.512119-102.899451-95.512119-9.741245 0-92.519302 3.374726-127.346761 92.646264zM481.739069 307.571056c0 18.654167 15.091046 33.745213 33.745213 33.745213 18.595805 0 33.748284-15.091046 33.748284-33.745213 0-18.657238-15.153503-33.748284-33.748284-33.748284-18.654167-0.001024-33.745213 15.090022-33.745213 33.748284zM456.394836 257.455965c1.467228-1.845041 2.93036-3.755611 4.521477-5.473691-28.972883-72.397907-92.580735-93.346601-127.731742-93.346601-85.066441 0-102.89638 51.957061-102.896379 95.512118 0 9.868207 3.05425 12.0327 4.202025 12.861024 5.030349 3.501688 27.571184 12.6071 109.07348-17.063049 39.862927-14.518694 86.153807-2.231046 112.831139 7.510199zM274.923449 476.496776c7.641256-2.483946 14.71016-4.648439 19.548018-5.985633 7.452861-2.10306 15.53746-0.508871 21.650055 4.267554 5.920105 4.645368 9.359336 11.778777 9.359336 19.293071v1.082247c0 9.995169 10.953525 30.944886 24.89782 52.084022 0.381909-81.691715 24.069496-160.587198 72.905754-206.496168-24.385877 7.387333-48.455373 20.186923-70.167885 36.421649-0.126962 0.126962-0.253924 0.19249-0.381909 0.319452-35.46534 26.616923-64.503752 62.399667-77.811189 99.013806z" fill="#F4CE73" /><path d="M863.052394 822.533156c-28.877662-143.647016-26.029213-295.891596 8.499272-454.154574-32.092662 4.837858-71.889036 8.724527-119.77001 11.778776 35.655783 40.878622 58.896956 90.099861 58.896956 137.41053 0 9.294831-5.666181 17.444958-14.008799 21.585551-8.404051 4.075064-18.781129 2.800326-26.168461-2.865855-3.182236-2.483946-14.135761-6.7515-26.80839-11.142944-16.362711 44.060857-58.832451 97.422689-80.92892 115.567984-7.896204 6.432048-18.973619 7.321804-27.759578 2.230022a24.457549 24.457549 0 0 1-12.163758-21.142208c0-1.398627 0.126962-2.738893 0.319452-4.13752a408.732974 408.732974 0 0 0 5.920105-69.150143c0-65.840946-16.427216-125.247796-44.125362-161.415522-29.989601 0.635833-50.746828 0.635833-70.487337 0.635833h-2.483946c-19.67498 0-37.820276-0.062457-66.920121-0.635833-28.845921 35.975235-45.974499 95.257171-45.974499 161.923369 0 22.348345 1.848113 45.462556 5.858672 68.642296 0.19249 1.398627 0.319452 2.738893 0.319452 4.13752a24.456525 24.456525 0 0 1-12.163758 21.142208c-8.78596 5.092806-19.864399 4.202025-27.759579-2.230022-22.097493-18.14632-64.566209-71.442622-80.928919-115.567984-12.671605 4.391444-23.626154 8.658998-26.872895 11.142944-7.384261 5.666181-17.76441 7.002352-26.103956 2.865855-8.342618-4.140592-14.008799-12.290719-14.008799-21.585551 0-47.122274 23.557554-96.085494 59.65975-136.964116-49.918505-3.119779-91.371526-7.194842-124.673397-12.22519 34.59299 158.295743 37.442462 310.572064 8.564801 454.124882-2.277121 11.332363 704.348121 11.332363 702.072024 0.029692z" fill="#79CCBF" /><path d="M511.982594 804.419601c-165.138369 0-291.722335 10.950454-351.210073 17.001616-2.340602 11.651815-4.456973 23.368135-7.211224 34.892988 125.374758-18.657238 332.826211-19.293071 358.421297-19.293071 25.598157 0 233.112067 0.635833 358.485802 19.293071-2.767562-11.651815-4.919769-23.463356-7.273682-35.245205-120.916761-12.098229-231.724703-16.649399-351.21212-16.649399z" fill="#FFFFFF" /></svg>